<?xml version="1.0" encoding="UTF-8"?>
<svg version="1.1" xmlns="http://www.w3.org/2000/svg" width="509" height="512">
<path d="M0 0 C167.97 0 335.94 0 509 0 C509 168.96 509 337.92 509 512 C341.03 512 173.06 512 0 512 C0 343.04 0 174.08 0 0 Z " fill="#1D5192" transform="translate(0,0)"/>
<path d="M0 0 C2.81409109 0.02379418 5.62723827 0.02049801 8.44140625 0.01391602 C70.72625178 0.10636761 128.9367172 26.86689975 172.86328125 70.39868164 C178.15281118 75.7365572 182.92716695 81.41140863 187.55078125 87.33618164 C188.35128906 88.33133789 189.15179688 89.32649414 189.9765625 90.35180664 C216.06813202 123.06826842 235.6937275 166.20027251 237.55078125 208.33618164 C237.22078125 208.33618164 236.89078125 208.33618164 236.55078125 208.33618164 C236.42026367 207.65217285 236.28974609 206.96816406 236.15527344 206.26342773 C225.99202672 153.33800899 201.85904927 106.53279491 157.55078125 74.33618164 C156.97666504 73.91771973 156.40254883 73.49925781 155.81103516 73.06811523 C138.85465093 60.87759272 120.21532365 52.18409848 100.55078125 45.33618164 C99.82955078 45.07530762 99.10832031 44.81443359 98.36523438 44.5456543 C92.20277944 42.37938251 85.94576492 41.00941141 79.55078125 39.71118164 C78.52210938 39.49461914 77.4934375 39.27805664 76.43359375 39.05493164 C67.58736846 37.23166383 58.93650165 36.19399601 49.90625 36.06274414 C49.10665863 36.05026138 48.30706726 36.03777863 47.48324585 36.0249176 C27.93346759 35.7791607 9.645397 36.67177221 -9.44921875 41.33618164 C-10.26777344 41.52841309 -11.08632812 41.72064453 -11.9296875 41.91870117 C-58.74994649 53.19061808 -101.34022473 85.3352813 -127.44921875 125.33618164 C-128.76921875 127.64618164 -130.08921875 129.95618164 -131.44921875 132.33618164 C-41.68921875 132.66618164 48.07078125 132.99618164 140.55078125 133.33618164 C139.55078125 143.33618164 139.55078125 143.33618164 138.55078125 145.33618164 C0.94078125 145.83118164 0.94078125 145.83118164 -139.44921875 146.33618164 C-140.43921875 148.64618164 -141.42921875 150.95618164 -142.44921875 153.33618164 C-50.37921875 153.33618164 41.69078125 153.33618164 136.55078125 153.33618164 C136.55078125 160.33618164 136.55078125 160.33618164 135.55078125 165.33618164 C41.83078125 165.33618164 -51.88921875 165.33618164 -148.44921875 165.33618164 C-149.10921875 167.64618164 -149.76921875 169.95618164 -150.44921875 172.33618164 C-56.72921875 172.33618164 36.99078125 172.33618164 133.55078125 172.33618164 C132.55078125 183.33618164 132.55078125 183.33618164 131.55078125 184.33618164 C130.02342906 184.43306166 128.49158694 184.45989865 126.96116543 184.45922947 C125.96292324 184.46122052 124.96468106 184.46321157 123.93618912 184.46526295 C122.82629074 184.46235011 121.71639237 184.45943727 120.57286072 184.45643616 C119.40411032 184.45729058 118.23535992 184.45814501 117.03119284 184.45902532 C113.77258745 184.46039349 110.51402131 184.45724609 107.25542057 184.45224726 C103.74688456 184.44794601 100.23835052 184.44938895 96.72981262 184.45014954 C90.64620971 184.45067498 84.56261748 184.44752607 78.47901726 184.4419117 C69.68305294 184.43379944 60.88709381 184.43118176 52.09112615 184.42992371 C37.82173416 184.42773275 23.55234788 184.4210715 9.28295898 184.41162109 C-4.58194958 184.40244809 -18.4468566 184.39536671 -32.31176758 184.39111328 C-33.16578559 184.39085056 -34.0198036 184.39058783 -34.89970095 184.39031715 C-39.18387468 184.38901215 -43.46804843 184.38774843 -47.75222218 184.38650525 C-83.31789177 184.37613129 -118.88355473 184.3585118 -154.44921875 184.33618164 C-154.94421875 188.29618164 -154.94421875 188.29618164 -155.44921875 192.33618164 C-61.39921875 192.33618164 32.65078125 192.33618164 129.55078125 192.33618164 C129.55078125 200.33618164 129.55078125 200.33618164 128.55078125 204.33618164 C33.84078125 204.33618164 -60.86921875 204.33618164 -158.44921875 204.33618164 C-158.94421875 208.29618164 -158.94421875 208.29618164 -159.44921875 212.33618164 C-65.06921875 212.33618164 29.31078125 212.33618164 126.55078125 212.33618164 C125.89078125 216.29618164 125.23078125 220.25618164 124.55078125 224.33618164 C100.13078125 224.33618164 75.71078125 224.33618164 50.55078125 224.33618164 C50.22078125 227.63618164 49.89078125 230.93618164 49.55078125 234.33618164 C49.05589897 237.21086066 48.53345057 240.0551637 47.94921875 242.91040039 C47.79229553 243.69911026 47.63537231 244.48782013 47.47369385 245.3004303 C47.13691433 246.99276903 46.79824353 248.68473234 46.45782471 250.37634277 C45.53385629 254.97381969 44.62753648 259.57475879 43.72265625 264.17602539 C43.53752472 265.11713165 43.35239319 266.05823792 43.16165161 267.02786255 C41.39947691 276.02988655 39.77159158 285.05342057 38.17578125 294.08618164 C35.21312503 310.8321687 32.07507511 327.54224871 28.90261841 344.24966431 C25.762961 360.79318083 22.70542455 377.34839589 19.79492188 393.93383789 C18.41261103 401.77637356 16.89103012 409.57074524 15.18676758 417.35107422 C14.45259262 420.79704628 13.86688783 424.22467455 13.36328125 427.71118164 C13.09244792 429.58618164 12.82161458 431.46118164 12.55078125 433.33618164 C39.33566036 435.94342511 65.60860384 434.59523128 91.55078125 427.33618164 C92.44796875 427.12477539 93.34515625 426.91336914 94.26953125 426.69555664 C115.86447747 421.49677329 137.73350745 410.48820826 155.55078125 397.33618164 C156.08155273 396.94527344 156.61232422 396.55436523 157.15917969 396.15161133 C169.59703034 386.90735963 181.89142596 376.51337835 191.55078125 364.33618164 C192.28039062 363.44415039 193.01 362.55211914 193.76171875 361.63305664 C217.17956773 332.23146707 230.15947806 299.18016475 236.55078125 262.33618164 C236.88078125 262.33618164 237.21078125 262.33618164 237.55078125 262.33618164 C236.64520679 310.5786031 209.4497139 359.18550931 177.671875 393.99243164 C175.73246622 396.13542477 173.85748826 398.31962802 171.98828125 400.52368164 C168.48287451 404.5321422 164.62022863 407.91430126 160.55078125 411.33618164 C159.62652344 412.14829102 158.70226562 412.96040039 157.75 413.79711914 C143.88600642 425.91733926 128.92438802 435.92651334 112.55078125 444.33618164 C111.79571289 444.72402832 111.04064453 445.111875 110.26269531 445.51147461 C90.84827223 455.35070093 70.91492801 462.23132771 49.55078125 466.33618164 C48.12282227 466.63032959 48.12282227 466.63032959 46.66601562 466.93041992 C19.78020598 472.38518854 -9.49939955 472.63820941 -36.44921875 467.33618164 C-37.3712207 467.1645752 -38.29322266 466.99296875 -39.24316406 466.81616211 C-60.77087718 462.7620539 -80.76404672 455.90607263 -100.44921875 446.33618164 C-101.45758789 445.84746582 -101.45758789 445.84746582 -102.48632812 445.34887695 C-124.06701224 434.73452417 -143.17912392 419.94564167 -160.44921875 403.33618164 C-160.9405127 402.86680176 -161.43180664 402.39742188 -161.93798828 401.91381836 C-176.66468649 387.78113823 -189.38727228 371.10357543 -199.44921875 353.33618164 C-199.8884668 352.56935059 -200.32771484 351.80251953 -200.78027344 351.01245117 C-212.07621481 331.06291625 -222.09320665 308.40223218 -226.04443359 285.6628418 C-226.33909657 283.96915172 -226.65477212 282.27907689 -226.98291016 280.59155273 C-234.1665022 243.10010142 -232.2768786 203.88913264 -221.44921875 167.33618164 C-221.0315625 165.83571289 -221.0315625 165.83571289 -220.60546875 164.30493164 C-212.24529851 134.86259298 -195.87889947 107.72181537 -176.44921875 84.33618164 C-176.02979004 83.82120117 -175.61036133 83.3062207 -175.17822266 82.77563477 C-150.22371494 52.19141866 -115.70644472 27.49933851 -78.44921875 14.33618164 C-77.65547852 14.05291016 -76.86173828 13.76963867 -76.04394531 13.4777832 C-51.13491402 4.6670009 -26.48678271 -0.23847366 0 0 Z " fill="#FCFDFD" transform="translate(250.44921875,20.663818359375)"/>
<path d="M0 0 C167.97 0 335.94 0 509 0 C509 168.96 509 337.92 509 512 C341.03 512 173.06 512 0 512 C0 343.04 0 174.08 0 0 Z M215 10 C214.25266602 10.11746582 213.50533203 10.23493164 212.73535156 10.35595703 C169.31352627 17.28368438 128.47574663 36.59276431 95 65 C94.2884375 65.60070312 93.576875 66.20140625 92.84375 66.8203125 C77.97428815 79.80563021 64.37358266 93.85357462 53 110 C52.26523438 111.01634521 52.26523438 111.01634521 51.515625 112.05322266 C37.69043641 131.24021959 26.95198714 152.75763142 19 175 C18.54496094 176.23105469 18.08992188 177.46210938 17.62109375 178.73046875 C14.54597863 187.72445748 12.63710832 196.94987917 10.75 206.25 C10.36207275 208.15144775 10.36207275 208.15144775 9.96630859 210.09130859 C7.10619195 224.69335841 6.78649677 238.96196009 6.75976562 253.79663086 C6.75009508 257.03070142 6.71900962 260.2641256 6.6875 263.49804688 C6.6219964 276.31117717 7.5240895 288.43139723 10 301 C10.29825684 302.63569946 10.29825684 302.63569946 10.60253906 304.30444336 C19.49639251 351.89301581 43.61072815 395.28268287 77 430 C77.46937988 430.49129395 77.93875977 430.98258789 78.42236328 431.48876953 C84.87872527 438.21650225 91.66488631 444.25248626 99 450 C99.96164063 450.77859375 100.92328125 451.5571875 101.9140625 452.359375 C134.62997995 478.36645874 174.2664434 495.59712057 215.62109375 501.65161133 C217.4494256 501.91936888 219.27441527 502.2100254 221.09765625 502.51049805 C232.08332771 504.18778534 242.90669961 504.35869746 254 504.3125 C255.42930344 504.30876877 255.42930344 504.30876877 256.88748169 504.30496216 C319.93770718 504.05036206 380.47455465 479.72116291 426 436 C426.6487207 435.38382812 427.29744141 434.76765625 427.96582031 434.1328125 C438.43117392 424.14823384 447.56751493 413.74501977 456 402 C456.67289062 401.08863281 457.34578125 400.17726563 458.0390625 399.23828125 C496.19533474 346.53384129 510.15421782 278.89778147 500.49609375 215.02246094 C496.54004949 190.92018343 488.7140644 167.9142818 478 146 C477.65388672 145.28328125 477.30777344 144.5665625 476.95117188 143.828125 C465.34466114 120.04248629 449.1829961 99.09930456 431 80 C430.31550781 79.27425781 429.63101562 78.54851562 428.92578125 77.80078125 C423.67445508 72.37902664 417.88969985 67.70676155 412 63 C411.24332031 62.36449219 410.48664063 61.72898438 409.70703125 61.07421875 C388.45428673 43.40627451 363.67540152 30.84823057 338 21 C337.2879541 20.72575195 336.5759082 20.45150391 335.84228516 20.16894531 C297.97639179 5.87155577 254.64839666 3.50415115 215 10 Z " fill="#FEFEFE" transform="translate(0,0)"/>
<path d="M0 0 C23.43 0 46.86 0 71 0 C69.7674859 9.24385574 68.49231284 18.30342657 66.71484375 27.4296875 C66.4977626 28.56376038 66.28068146 29.69783325 66.05702209 30.86627197 C65.59356111 33.28587944 65.12830932 35.7051445 64.66137695 38.12408447 C63.54690022 43.89897212 62.44361825 49.67599199 61.34074783 55.45310593 C61.08981159 56.76736541 60.83873038 58.08159723 60.58750534 59.39580154 C57.08469903 77.72188706 53.73669942 96.07616163 50.38722229 114.43075562 C48.95091548 122.29211409 47.48265661 130.14725528 46 138 C22.52731117 115.03646951 9.09869012 79.48838682 3 48 C2.73751465 46.72213623 2.73751465 46.72213623 2.46972656 45.41845703 C-0.62695297 30.06076617 0 16.00763919 0 0 Z " fill="#1C5092" transform="translate(90,245)"/>
<path d="M0 0 C1.37918793 0.12744971 2.75733135 0.28117302 4.125 0.5 C8.125 7.25 8.125 7.25 8.125 9.5 C6.805 9.83 5.485 10.16 4.125 10.5 C4.61097656 10.86609375 5.09695312 11.2321875 5.59765625 11.609375 C8.65911466 15.39900638 7.66699569 20.83659026 7.34960938 25.48583984 C6.50093508 33.09623435 4.52766382 41.18461076 0.125 47.5 C-5.00971046 51.22266508 -10.76122209 51.45701995 -16.875 50.5 C-20.0625 48.5625 -20.0625 48.5625 -21.875 45.5 C-23.3977965 38.24787012 -20.77503536 30.45799986 -18.875 23.5 C-18.55015625 22.29537109 -18.55015625 22.29537109 -18.21875 21.06640625 C-16.93393689 17.02077449 -15.19998362 14.04419655 -11.76953125 11.46484375 C-8.05129487 9.57122646 -3.97619173 9.04304317 0.125 8.5 C0.125 7.51 0.125 6.52 0.125 5.5 C-0.390625 5.995 -0.90625 6.49 -1.4375 7 C-4.68180017 8.99649241 -7.13717334 8.71564385 -10.875 8.5 C-5.99371376 -0.07574994 -5.99371376 -0.07574994 0 0 Z " fill="#1B4F91" transform="translate(196.875,338.5)"/>
<path d="M0 0 C4.07750995 3.02900739 4.07750995 3.02900739 4.5234375 5.4453125 C4.68146186 14.76874956 3.17216659 26.66695103 -2.8125 34.125 C-5.8125 36.625 -5.8125 36.625 -9.8125 36.625 C-10.1425 39.265 -10.4725 41.905 -10.8125 44.625 C-13.4525 44.625 -16.0925 44.625 -18.8125 44.625 C-18.709375 43.573125 -18.60625 42.52125 -18.5 41.4375 C-18.3908448 37.49222991 -18.3908448 37.49222991 -21.3125 35.3125 C-24.03345056 32.38747815 -24.21517742 31.9023328 -24.3125 28.125 C-23.80324764 18.90340314 -22.20731366 8.69009158 -15.8125 1.625 C-10.73636189 -1.90622651 -5.65925978 -2.76674923 0 0 Z " fill="#F4F7F9" transform="translate(351.8125,278.375)"/>
<path d="M0 0 C3.3 0 6.6 0 10 0 C10.99 4.95 11.98 9.9 13 15 C14.32 10.05 15.64 5.1 17 0 C19.97 0 22.94 0 26 0 C25.32960181 7.79337894 23.73694457 15.25538465 22 22.875 C21.72671875 24.09703125 21.4534375 25.3190625 21.171875 26.578125 C19.15529337 35.5341199 19.15529337 35.5341199 18 39 C15.03 39 12.06 39 9 39 C7.68 33.06 6.36 27.12 5 21 C4.05335972 26.54894181 4.05335972 26.54894181 3.11547852 32.09936523 C2.11111111 37.88888889 2.11111111 37.88888889 1 39 C-1.67058851 39.14115161 -4.32432238 39.04247107 -7 39 C-7.16180681 33.89441731 -6.61147795 29.27067004 -5.46875 24.31640625 C-5.31337769 23.61603745 -5.15800537 22.91566864 -4.9979248 22.19407654 C-4.50552461 19.98193809 -4.00295256 17.77226043 -3.5 15.5625 C-3.16208233 14.052886 -2.82483622 12.54312151 -2.48828125 11.03320312 C-1.66660476 7.35368404 -0.8358048 3.67633442 0 0 Z " fill="#F6F8FA" transform="translate(293,349)"/>
<path d="M0 0 C2.75105422 -0.10812003 5.49785087 -0.18734945 8.25 -0.25 C9.02730469 -0.28351563 9.80460937 -0.31703125 10.60546875 -0.3515625 C14.29666263 -0.41465983 16.36803983 -0.41312924 19.515625 1.64453125 C22.99040851 7.15846404 21.53086032 14.43370198 20.26953125 20.53125 C18.52724391 26.73237064 16.77507373 31.59223964 12 36 C8.23699626 37.25433458 4.72789091 37.10695422 0.8125 37.0625 C0.06291016 37.05798828 -0.68667969 37.05347656 -1.45898438 37.04882812 C-3.30602383 37.03706354 -5.15302213 37.01912865 -7 37 C-6.85816304 35.24967156 -6.71136571 33.49974466 -6.5625 31.75 C-6.48128906 30.77546875 -6.40007812 29.8009375 -6.31640625 28.796875 C-6.04925416 26.43538247 -5.64628032 24.28098935 -5 22 C-5.66 22 -6.32 22 -7 22 C-6.67 19.69 -6.34 17.38 -6 15 C-5.01 15 -4.02 15 -3 15 C-2.86722656 14.16855469 -2.73445312 13.33710938 -2.59765625 12.48046875 C-2.42105469 11.39378906 -2.24445313 10.30710937 -2.0625 9.1875 C-1.88847656 8.10855469 -1.71445313 7.02960938 -1.53515625 5.91796875 C-1 3 -1 3 0 0 Z " fill="#1E5292" transform="translate(222,278)"/>
<path d="M0 0 C2.97 0 5.94 0 9 0 C9.20496094 1.05960937 9.40992188 2.11921875 9.62109375 3.2109375 C9.89307666 4.59898822 10.16522044 5.98700744 10.4375 7.375 C10.57220703 8.07367188 10.70691406 8.77234375 10.84570312 9.4921875 C11.5772422 13.35628734 11.5772422 13.35628734 13 17 C13.99 11.39 14.98 5.78 16 0 C18.97 0 21.94 0 25 0 C24.32960181 7.79337894 22.73694457 15.25538465 21 22.875 C20.72671875 24.09703125 20.4534375 25.3190625 20.171875 26.578125 C18.15529337 35.5341199 18.15529337 35.5341199 17 39 C14.03 39 11.06 39 8 39 C6.68 33.39 5.36 27.78 4 22 C3.05343131 27.21980638 3.05343131 27.21980638 2.11547852 32.44116211 C1.11111111 37.88888889 1.11111111 37.88888889 0 39 C-2.67058851 39.14115161 -5.32432238 39.04247107 -8 39 C-7.30831663 31.0369952 -5.70436364 23.36478734 -4 15.5625 C-3.72671875 14.28439453 -3.4534375 13.00628906 -3.171875 11.68945312 C-1.13541667 2.27083333 -1.13541667 2.27083333 0 0 Z " fill="#1D5091" transform="translate(214,349)"/>
<path d="M0 0 C1.9375 1.5625 1.9375 1.5625 2.9375 2.5625 C3.00955511 4.24858966 3.02136068 5.93750659 3 7.625 C2.99097656 8.54410156 2.98195313 9.46320313 2.97265625 10.41015625 C2.96105469 11.12042969 2.94945312 11.83070313 2.9375 12.5625 C-0.0325 12.5625 -3.0025 12.5625 -6.0625 12.5625 C-6.0625 10.5825 -6.0625 8.6025 -6.0625 6.5625 C-9.00977535 6.66419161 -9.00977535 6.66419161 -12.0625 7.5625 C-13.49031868 9.61820224 -13.49031868 9.61820224 -14.0625 12.5625 C-14.24554688 13.21605469 -14.42859375 13.86960937 -14.6171875 14.54296875 C-16.0948467 20.26130745 -16.28357658 25.67940662 -16.0625 31.5625 C-14.11013234 31.29375295 -14.11013234 31.29375295 -12.0625 30.5625 C-10.27870585 27.57897106 -10.27870585 27.57897106 -9.0625 24.5625 C-10.3825 24.5625 -11.7025 24.5625 -13.0625 24.5625 C-12.7325 21.9225 -12.4025 19.2825 -12.0625 16.5625 C-7.4425 16.5625 -2.8225 16.5625 1.9375 16.5625 C0.60416667 23.89583333 -0.72916667 31.22916667 -2.0625 38.5625 C-2.70058594 38.55089844 -3.33867187 38.53929687 -3.99609375 38.52734375 C-4.82238281 38.51832031 -5.64867187 38.50929688 -6.5 38.5 C-7.32371094 38.48839844 -8.14742188 38.47679687 -8.99609375 38.46484375 C-11.05413938 38.32982652 -11.05413938 38.32982652 -12.0625 39.5625 C-17.04094661 40.20785419 -20.86156084 40.30708228 -25.1875 37.625 C-28.42124533 32.34321597 -27.42259384 26.63110533 -26.14453125 20.73828125 C-25.7329586 19.11420251 -25.30967992 17.49304733 -24.875 15.875 C-24.67841797 15.05966797 -24.48183594 14.24433594 -24.27929688 13.40429688 C-22.66269898 7.25127657 -20.49139851 2.88185241 -15.05859375 -0.79296875 C-10.05968275 -2.40709853 -4.71995828 -2.21549062 0 0 Z " fill="#F5F8F9" transform="translate(345.0625,349.4375)"/>
<path d="M0 0 C2.97 0 5.94 0 9 0 C8.44854729 5.23880078 7.57077907 9.97350697 6 15 C8.64 15 11.28 15 14 15 C14.04898437 14.41992188 14.09796875 13.83984375 14.1484375 13.2421875 C14.59649405 8.56076908 15.298021 4.42514541 17 0 C19.97 0 22.94 0 26 0 C24.73842444 9.54481508 22.73535367 18.77232304 20.45507812 28.11474609 C19.58211209 31.73118587 18.79300919 35.36537457 18 39 C15.03 39 12.06 39 9 39 C9.55084095 33.1243632 10.44757641 27.69221983 12 22 C9.36 22 6.72 22 4 22 C3.95101563 22.6290625 3.90203125 23.258125 3.8515625 23.90625 C3.36564801 29.46913314 2.49446374 34.61993052 1 40 C-1.97 40 -4.94 40 -8 40 C-7.52337831 33.51794505 -6.49103675 27.58136419 -4.828125 21.3046875 C-3.57179797 16.29123152 -2.62253742 11.22709013 -1.6484375 6.15234375 C-1 3 -1 3 0 0 Z " fill="#F4F7F9" transform="translate(356,349)"/>
<path d="M0 0 C2.48050929 1.16432069 4.09425952 2.09425952 6 4 C6.07205511 5.68608966 6.08386068 7.37500659 6.0625 9.0625 C6.05347656 9.98160156 6.04445313 10.90070313 6.03515625 11.84765625 C6.02355469 12.55792969 6.01195312 13.26820313 6 14 C3.03 14 0.06 14 -3 14 C-3 12.35 -3 10.7 -3 9 C-4.83700789 8.22757731 -4.83700789 8.22757731 -7 8 C-11.63255318 11.42714393 -12.07043383 17.66144982 -13 23 C-13.20887508 26.35505592 -13.20037833 29.6455184 -13 33 C-11.35 33 -9.7 33 -8 33 C-7.01 29.535 -7.01 29.535 -6 26 C-7.32 26 -8.64 26 -10 26 C-9.67 23.36 -9.34 20.72 -9 18 C-4.38 18 0.24 18 5 18 C3.58409924 25.40625013 1.88178579 32.69867115 0 40 C-1.9490625 39.9690625 -1.9490625 39.9690625 -3.9375 39.9375 C-5.29165633 39.91600546 -6.64756083 39.92851801 -8 40 C-8.495 40.495 -8.495 40.495 -9 41 C-13.3412615 41.54714246 -16.99751514 41.40917749 -21.0625 39.75 C-24.64600849 34.66372988 -23.67457169 28.90066142 -22.64990234 22.97558594 C-22.22632287 20.8463471 -21.75396263 18.73661075 -21.25 16.625 C-21.09345947 15.95952148 -20.93691895 15.29404297 -20.77563477 14.60839844 C-19.35366068 9.18733495 -17.09954306 4.852538 -12.875 1.125 C-8.58510143 -0.55365596 -4.54741148 -0.57496007 0 0 Z " fill="#1E5192" transform="translate(262,348)"/>
<path d="M0 0 C2.97 0 5.94 0 9 0 C8.34 4.62 7.68 9.24 7 14 C9.31 14 11.62 14 14 14 C14.09087891 12.86111328 14.09087891 12.86111328 14.18359375 11.69921875 C14.26738281 10.70535156 14.35117187 9.71148437 14.4375 8.6875 C14.51871094 7.70136719 14.59992188 6.71523438 14.68359375 5.69921875 C15 3 15 3 16 0 C18.97 0 21.94 0 25 0 C23.60620618 7.8818404 22.06858636 15.72650946 20.4375 23.5625 C20.21642578 24.64080078 19.99535156 25.71910156 19.76757812 26.83007812 C19.55423828 27.85681641 19.34089844 28.88355469 19.12109375 29.94140625 C18.9295874 30.86638916 18.73808105 31.79137207 18.54077148 32.74438477 C18 35 18 35 17 37 C14.36 37 11.72 37 9 37 C9.96355353 26.44191344 9.96355353 26.44191344 11 22 C8.69 21.67 6.38 21.34 4 21 C3.93941406 21.73605469 3.87882812 22.47210938 3.81640625 23.23046875 C3.73261719 24.20628906 3.64882813 25.18210937 3.5625 26.1875 C3.48128906 27.15042969 3.40007812 28.11335938 3.31640625 29.10546875 C3.02333849 31.78649602 2.57296246 34.3662986 2 37 C-0.97 37 -3.94 37 -7 37 C-5.54618781 24.47985618 -2.77728089 12.28034257 0 0 Z " fill="#F4F7F9" transform="translate(304,278)"/>
<path d="M0 0 C7.26 0 14.52 0 22 0 C21.67 2.31 21.34 4.62 21 7 C14.565 7.495 14.565 7.495 8 8 C7.34 10.31 6.68 12.62 6 15 C9.96 15 13.92 15 18 15 C17.67 17.31 17.34 19.62 17 22 C12.71 22 8.42 22 4 22 C3.67 25.3 3.34 28.6 3 32 C6.96 32 10.92 32 15 32 C14.67 34.31 14.34 36.62 14 39 C6.74 39 -0.52 39 -8 39 C-5.81012705 25.8607623 -3.01966504 12.97639842 0 0 Z " fill="#F7F9FA" transform="translate(387,349)"/>
<path d="M0 0 C2.0625 1.5625 2.0625 1.5625 3.0625 2.5625 C3.13455511 4.24858966 3.14636068 5.93750659 3.125 7.625 C3.11597656 8.54410156 3.10695312 9.46320313 3.09765625 10.41015625 C3.08605469 11.12042969 3.07445312 11.83070313 3.0625 12.5625 C0.4225 12.5625 -2.2175 12.5625 -4.9375 12.5625 C-5.2675 10.5825 -5.5975 8.6025 -5.9375 6.5625 C-7.899471 6.7944911 -7.899471 6.7944911 -9.9375 7.5625 C-13.4788493 15.19002158 -15.29509125 23.15910565 -14.9375 31.5625 C-13.6175 31.5625 -12.2975 31.5625 -10.9375 31.5625 C-9.9475 28.9225 -8.9575 26.2825 -7.9375 23.5625 C-4.9675 23.5625 -1.9975 23.5625 1.0625 23.5625 C0.49370907 25.31728052 -0.09320656 27.06619158 -0.6875 28.8125 C-1.01234375 29.78703125 -1.3371875 30.7615625 -1.671875 31.765625 C-3.0394969 34.78790056 -4.39917639 36.45045974 -6.9375 38.5625 C-11.26052359 40.00350786 -15.41955584 40.11798494 -19.9375 39.5625 C-22.51387471 37.67734777 -23.53417428 36.36915143 -24.9375 33.5625 C-25.33475411 27.58810982 -24.18786854 22.28151916 -22.75 16.5 C-22.55341797 15.62794922 -22.35683594 14.75589844 -22.15429688 13.85742188 C-20.58689929 7.48655354 -18.47381423 3.24522114 -13.125 -0.8125 C-8.36090467 -2.17367009 -4.38566299 -2.1461755 0 0 Z " fill="#1B4F90" transform="translate(170.9375,349.4375)"/>
<path d="M0 0 C3.3 0 6.6 0 10 0 C10 12.21 10 24.42 10 37 C7.36 37 4.72 37 2 37 C2 34.03 2 31.06 2 28 C-0.31 28 -2.62 28 -5 28 C-5.12375 28.7425 -5.2475 29.485 -5.375 30.25 C-5.95486701 32.80141485 -6.73708739 34.7267573 -8 37 C-10.64 37 -13.28 37 -16 37 C-15.34360418 32.58826273 -13.72049647 28.78661645 -11.875 24.765625 C-11.56804199 24.08699402 -11.26108398 23.40836304 -10.94482422 22.70916748 C-10.29836506 21.28269306 -9.64939082 19.85735607 -8.99804688 18.43310547 C-7.99806556 16.24576865 -7.00623219 14.05487706 -6.015625 11.86328125 C-5.38588847 10.47634818 -4.75569616 9.08962195 -4.125 7.703125 C-3.82706543 7.0458844 -3.52913086 6.3886438 -3.22216797 5.71148682 C-1.11642196 1.11642196 -1.11642196 1.11642196 0 0 Z " fill="#1F5292" transform="translate(257,278)"/>
<path d="M0 0 C3.11044074 3.95874276 2.47955794 7.76859204 2.0625 12.625 C-0.5775 12.625 -3.2175 12.625 -5.9375 12.625 C-5.9375 10.645 -5.9375 8.665 -5.9375 6.625 C-7.2575 6.955 -8.5775 7.285 -9.9375 7.625 C-13.41306665 18.40786372 -13.41306665 18.40786372 -13.9375 29.625 C-12.9475 29.295 -11.9575 28.965 -10.9375 28.625 C-9.71229736 25.61652582 -9.71229736 25.61652582 -8.9375 22.625 C-5.9675 22.625 -2.9975 22.625 0.0625 22.625 C-2.10928342 32.43612686 -2.10928342 32.43612686 -5.5 35.75 C-10.11017916 38.26464318 -13.79780318 38.65122898 -18.9375 37.625 C-22.0625 35.75 -22.0625 35.75 -23.9375 32.625 C-25.83314218 23.74451411 -22.46641825 11.91863059 -17.97265625 4.2890625 C-13.39259638 -1.70633257 -6.82383155 -3.19413392 0 0 Z " fill="#F4F7F9" transform="translate(381.9375,278.375)"/>
<path d="M0 0 C2.64 0 5.28 0 8 0 C7.31137469 8.0107172 5.66689417 15.71803223 3.9375 23.5625 C3.652578 24.87035198 3.36806969 26.17829415 3.08398438 27.48632812 C2.39337262 30.6584601 1.69861189 33.8296221 1 37 C-1.64 37 -4.28 37 -7 37 C-6.49889227 29.10755325 -4.85822213 21.75037217 -2.98828125 14.09765625 C-1.84707606 9.42615059 -0.88265973 4.72687514 0 0 Z " fill="#1C5091" transform="translate(279,278)"/>
<path d="M0 0 C3.875 0.875 3.875 0.875 5 2 C4.93851771 9.33176252 4.11715666 19.94005209 -0.43359375 25.8671875 C-2 27 -2 27 -4.6875 26.6875 C-5.450625 26.460625 -6.21375 26.23375 -7 26 C-7.47290306 17.96064797 -6.73031971 8.74660538 -1.890625 2.10546875 C-1.26671875 1.41066406 -0.6428125 0.71585937 0 0 Z " fill="#F1F5F7" transform="translate(191,355)"/>
<path d="M0 0 C0.78375 0.04125 1.5675 0.0825 2.375 0.125 C2.99364063 7.85800788 0.98481627 14.86704379 -1.625 22.125 C-2.285 22.785 -2.945 23.445 -3.625 24.125 C-5.75 23.75 -5.75 23.75 -7.625 23.125 C-7.76590007 18.13585676 -7.30772028 13.68743852 -6.25 8.8125 C-5.99476563 7.59949219 -5.73953125 6.38648438 -5.4765625 5.13671875 C-4.43702975 1.46020613 -3.93189257 0.18723298 0 0 Z " fill="#1A4E90" transform="translate(344.625,284.875)"/>
<path d="M0 0 C1.66611905 -0.042721 3.33382885 -0.04063832 5 0 C6 1 6 1 6.25 3.8125 C6.16531406 9.63163416 5.19107679 17.18375185 1.5625 21.84765625 C-0.63505268 23.46835135 -2.34458445 23.21530396 -5 23 C-4.67 20.36 -4.34 17.72 -4 15 C-2.35 14.67 -0.7 14.34 1 14 C1.33 12.02 1.66 10.04 2 8 C1.01 8 0.02 8 -1 8 C-1.125 2.25 -1.125 2.25 0 0 Z " fill="#F0F4F6" transform="translate(229,285)"/>
<path d="M0 0 C3.625 0.6875 3.625 0.6875 5.19140625 2.41015625 C8.625 7.80021368 8.625 7.80021368 8.625 10.6875 C5.985 10.6875 3.345 10.6875 0.625 10.6875 C0.295 10.0275 -0.035 9.3675 -0.375 8.6875 C-0.87 9.0175 -1.365 9.3475 -1.875 9.6875 C-5.46590894 11.12386358 -8.51956127 10.81601462 -12.375 10.6875 C-11.43909496 9.5819811 -10.50120142 8.47814547 -9.5625 7.375 C-9.04042969 6.76011719 -8.51835937 6.14523437 -7.98046875 5.51171875 C-3.81332439 0.7767883 -3.81332439 0.7767883 0 0 Z " fill="#E9F0F4" transform="translate(400.375,337.3125)"/>
<path d="M0 0 C0.33 0 0.66 0 1 0 C0.5828754 22.22136507 -6.7565175 43.57797705 -15 64 C-15.99 64 -16.98 64 -18 64 C-18.33 63.34 -18.66 62.68 -19 62 C-18.38256836 60.16259766 -18.38256836 60.16259766 -17.33984375 57.9140625 C-16.96110107 57.07617188 -16.5823584 56.23828125 -16.19213867 55.375 C-15.77810791 54.4675 -15.36407715 53.56 -14.9375 52.625 C-7.41184227 35.54715226 -3.13316685 18.35667166 0 0 Z " fill="#D9E4EB" transform="translate(487,283)"/>
<path d="M0 0 C10.00304692 15.00457038 13.66755994 39.29001113 14 57 C13.67 57 13.34 57 13 57 C12.86948242 56.31599121 12.73896484 55.63198242 12.60449219 54.92724609 C9.4903495 38.71025259 6.40819859 23.07830346 -0.14453125 7.83984375 C-1.07811808 4.74067653 -0.91666415 3.06492 0 0 Z " fill="#ABC3D6" transform="translate(474,172)"/>
<path d="M0 0 C2.64 0 5.28 0 8 0 C7.67 2.64 7.34 5.28 7 8 C4.36 8 1.72 8 -1 8 C-1.125 2.25 -1.125 2.25 0 0 Z " fill="#EFF4F6" transform="translate(385,389)"/>
<path d="M0 0 C0.33 0 0.66 0 1 0 C0.83386705 8.85035546 -0.49163473 17.13650905 -2.4375 25.75 C-2.65494873 26.72662598 -2.87239746 27.70325195 -3.09643555 28.70947266 C-4.74315677 35.74315677 -4.74315677 35.74315677 -7 38 C-8.41386442 33.75840674 -6.94261888 30.46477755 -5.75 26.3125 C-3.34248791 17.6060989 -1.51021552 8.90167684 0 0 Z " fill="#A3BDD1" transform="translate(487,283)"/>
<path d="M0 0 C2.64 0 5.28 0 8 0 C7.67 2.31 7.34 4.62 7 7 C4.36 7 1.72 7 -1 7 C-0.67 4.69 -0.34 2.38 0 0 Z " fill="#174D8E" transform="translate(249,316)"/>
<path d="M0 0 C-1.75 5.75 -1.75 5.75 -4 8 C-6.125 7.625 -6.125 7.625 -8 7 C-8 4.69 -8 2.38 -8 0 C-5.13822943 -1.43088528 -3.06624227 -0.59991697 0 0 Z " fill="#194D90" transform="translate(336,374)"/>
<path d="M0 0 C0.75 3.25 0.75 3.25 1 7 C-0.9375 9.4375 -0.9375 9.4375 -3 11 C-3.66 10.67 -4.32 10.34 -5 10 C-4.51171875 3.9453125 -4.51171875 3.9453125 -4 2 C-1 0 -1 0 0 0 Z " fill="#265894" transform="translate(319,364)"/>
<path d="M0 0 C0.99 0.33 1.98 0.66 3 1 C3 1.66 3 2.32 3 3 C5.64 3 8.28 3 11 3 C11 3.33 11 3.66 11 4 C3.74 4 -3.52 4 -11 4 C-11 3.67 -11 3.34 -11 3 C-10.37351562 2.95101563 -9.74703125 2.90203125 -9.1015625 2.8515625 C-8.28429687 2.77679688 -7.46703125 2.70203125 -6.625 2.625 C-5.81289063 2.55539062 -5.00078125 2.48578125 -4.1640625 2.4140625 C-1.79665809 2.17107412 -1.79665809 2.17107412 0 0 Z " fill="#2A588F" transform="translate(398,345)"/>
<path d="M0 0 C1.13643966 3.40931897 0.86747764 4.00335456 -0.4375 7.1875 C-0.72496094 7.90292969 -1.01242187 8.61835938 -1.30859375 9.35546875 C-1.53675781 9.89816406 -1.76492188 10.44085938 -2 11 C-2.99 11 -3.98 11 -5 11 C-5.33 10.34 -5.66 9.68 -6 9 C-5.0390625 7.08984375 -5.0390625 7.08984375 -3.625 4.9375 C-3.16351563 4.22464844 -2.70203125 3.51179688 -2.2265625 2.77734375 C-1 1 -1 1 0 0 Z " fill="#E7EFF3" transform="translate(474,336)"/>
<path d="M0 0 C2.87579981 4.31369972 4 7.80734761 4 13 C3.34 13 2.68 13 2 13 C-1.62870159 4.738041 -1.62870159 4.738041 0 0 Z " fill="#DEE8ED" transform="translate(474,172)"/>
<path d="M0 0 C0.66 0 1.32 0 2 0 C2.33 1.32 2.66 2.64 3 4 C1.58456585 4.19658808 0.16755969 4.38187546 -1.25 4.5625 C-2.03890625 4.66691406 -2.8278125 4.77132813 -3.640625 4.87890625 C-6.00532874 5.00027349 -7.7511037 4.69633257 -10 4 C-9.67 3.34 -9.34 2.68 -9 2 C-7.329375 2.061875 -7.329375 2.061875 -5.625 2.125 C-1.95633975 2.41121859 -1.95633975 2.41121859 0 0 Z " fill="#ABBFD0" transform="translate(195,344)"/>
<path d="M0 0 C0.33 1.32 0.66 2.64 1 4 C1.66 4 2.32 4 3 4 C2.67 6.97 2.34 9.94 2 13 C1.67 13 1.34 13 1 13 C1 11.35 1 9.7 1 8 C0.34 8 -0.32 8 -1 8 C-0.67 5.36 -0.34 2.72 0 0 Z " fill="#0E4389" transform="translate(326,292)"/>
<path d="M0 0 C0.33 0.99 0.66 1.98 1 3 C2.65 3 4.3 3 6 3 C6.33 2.34 6.66 1.68 7 1 C7 2.32 7 3.64 7 5 C4.36 5 1.72 5 -1 5 C-0.67 3.35 -0.34 1.7 0 0 Z " fill="#326299" transform="translate(363,359)"/>
<path d="M0 0 C0.33 0 0.66 0 1 0 C1.33 2.31 1.66 4.62 2 7 C1.01 7.495 1.01 7.495 0 8 C-0.66 8.99 -1.32 9.98 -2 11 C-1.85892253 9.54119891 -1.71197585 8.08296449 -1.5625 6.625 C-1.48128906 5.81289063 -1.40007812 5.00078125 -1.31640625 4.1640625 C-1 2 -1 2 0 0 Z " fill="#D8E3E9" transform="translate(218,369)"/>
<path d="M0 0 C3.63 0 7.26 0 11 0 C11 0.33 11 0.66 11 1 C10.07767578 1.05607422 10.07767578 1.05607422 9.13671875 1.11328125 C7.92435547 1.21189453 7.92435547 1.21189453 6.6875 1.3125 C5.88699219 1.37050781 5.08648437 1.42851562 4.26171875 1.48828125 C1.63727666 2.08206694 0.69179328 2.95780294 -1 5 C-0.67 3.35 -0.34 1.7 0 0 Z " fill="#0A498C" transform="translate(392,372)"/>
</svg>
